<svg width="360" height="370" fill="none" xmlns="http://www.w3.org/2000/svg"><mask id="a" style="mask-type:alpha" maskUnits="userSpaceOnUse" x="0" y="0" width="361" height="370"><path fill="#fff" d="M0 0h360.39v370H0z"/></mask><g mask="url(#a)"><ellipse opacity=".2" cx="178.871" cy="328.456" rx="160.901" ry="8.64" fill="#71ABDE"/><path fill-rule="evenodd" clip-rule="evenodd" d="M163.918 198.027s12.337-2.002 18.477.209c4.442 1.598 9.775 5.412 11.205 16.936 0 0-14.688 4.325-29.681 4.467-.001.001-2.308-13.474-.001-21.612Z" fill="#F3AE92"/><path opacity=".5" fill-rule="evenodd" clip-rule="evenodd" d="M175.066 218.856c.396-3.403.749-9.139-.769-12.604-1.25-2.856-5.428-5.227-10.878-6.027-1.434 8.151.493 19.413.493 19.413a99.303 99.303 0 0 0 11.154-.782Z" fill="#EB7C74"/><path opacity=".2" fill-rule="evenodd" clip-rule="evenodd" d="M182.395 198.235a27.587 27.587 0 0 0-9.194-1.027c3.059.136 12.795 2.487 15.617 8.98a42.587 42.587 0 0 1 2.644 9.56c1.363-.349 2.138-.576 2.138-.576-1.432-11.524-6.764-15.337-11.205-16.937Z" fill="#fff"/><path fill-rule="evenodd" clip-rule="evenodd" d="M72.154 212.022c-5.732-1.753-5.422-2.059-10.707-3.97-5.285-1.912-5.97-2.115-10.519-3.805-4.548-1.691-20.655-3.904-27.79 17.031-7.354 21.575.837 28.614 5.646 32.182 7.465 5.538 24.728 11.813 29.725 13.858 0 0-9.792-35.381 13.645-55.296Z" fill="#F29297"/><path fill-rule="evenodd" clip-rule="evenodd" d="M72.154 212.022c-5.732-1.753-5.422-2.059-10.707-3.97-5.285-1.912-5.97-2.115-10.519-3.805-4.548-1.691-20.655-3.904-27.79 17.031-7.354 21.575.837 28.614 5.646 32.182 7.465 5.538 24.728 11.813 29.725 13.858 0 0-9.792-35.381 13.645-55.296Z" fill="#F29297"/><path fill-rule="evenodd" clip-rule="evenodd" d="M70.975 212.385c-7.688-2.06-18.14-6.241-21.776-7.149-3.635-.909-9.09-.638-12.089 1.908-2.999 2.546 4.378-.028 13.193 2.972 8.814 2.999 12.526 4.792 15.462 5.918 2.936 1.126 5.21-3.649 5.21-3.649Z" fill="#F5A9A7"/><path opacity=".5" fill-rule="evenodd" clip-rule="evenodd" d="M46.178 230.816c-5.206-2.367-10.882-4.746-14.224-8.47-6.782-7.559-1.43-13.647 2.803-16.626-4.433 2.473-8.751 7.143-11.62 15.558-7.353 21.575.838 28.614 5.646 32.182 7.466 5.538 24.728 11.813 29.726 13.858 0 0-4.203-15.191-.507-31.269a631.577 631.577 0 0 1-11.824-5.233Z" fill="#EC6469"/><path opacity=".5" fill-rule="evenodd" clip-rule="evenodd" d="M29.338 210.117a31.93 31.93 0 0 0-6.203 11.162c-7.354 21.575.837 28.614 5.645 32.182 7.467 5.538 24.729 11.813 29.726 13.858a71.424 71.424 0 0 1-2.018-16.878 148.242 148.242 0 0 1-23.282-11.799c-15.657-10.233-4.783-27.156-3.868-28.525Z" fill="#E73555"/><path fill-rule="evenodd" clip-rule="evenodd" d="M91.651 276.962a2.548 2.548 0 0 1-2.226 1.032c-1.943-.033-5.81-1.914-15.714-5.035-7.962-2.509-12.953-3.511-14.446-4.846-3.718-3.325-8.338-15.82-4.936-31.507 3.181-14.665 12.83-22.45 16.146-24.003 2.715-1.272 5.65-1.005 11.209.651a82.092 82.092 0 0 0 15.907 3.064c4.704.431 3.832 2.185 3.832 2.185s-16.232 6.049-19.946 23.746c-4.678 22.286 10.174 34.713 10.174 34.713Z" fill="#16A461"/><path fill-rule="evenodd" clip-rule="evenodd" d="M70.976 212.386a8.128 8.128 0 0 0-.504.217 20.612 20.612 0 0 0-4.709 3.432 186.648 186.648 0 0 0 21.852 7.141s4.177-.399 7.355-1.062a37.125 37.125 0 0 1 3.117-1.983 9.667 9.667 0 0 0-2.83-.917c-7.995-1.718-19.4-5.269-24.281-6.828Z" fill="#3EC664"/><path fill-rule="evenodd" clip-rule="evenodd" d="M54.8 234.726c-.164.619-.33 1.233-.47 1.879-3.403 15.687 1.217 28.182 4.935 31.508 1.493 1.335 6.484 2.338 14.446 4.846 9.903 3.121 13.771 5.003 15.714 5.035.87.06 1.71-.33 2.226-1.032 0 0-13.465-11.283-10.702-31.614-9.08-3.352-17.903-6.995-26.149-10.622Z" fill="#16935D"/><path fill-rule="evenodd" clip-rule="evenodd" d="M89.426 277.993c.87.06 1.71-.33 2.226-1.032a34.22 34.22 0 0 1-8.736-13.229l-7.593-6.314s-10.39-3.263-22.152-8.372c.308 9.595 3.433 16.683 6.097 19.065 1.493 1.335 6.484 2.337 14.446 4.846 9.901 3.122 13.77 5.004 15.712 5.036Z" fill="#0E7F4C"/><path fill-rule="evenodd" clip-rule="evenodd" d="M67.677 241.564c3.369-19.926 21.488-25.596 23.711-26.061a81.797 81.797 0 0 1-8.976-2.043h-.013c-3.04.335-18.603 7.4-21.412 25.256-2.723 17.299 4.214 29.852 6.657 32.419 1.775.513 3.795 1.104 6.067 1.819 1.129.357 2.17.693 3.148 1.016 0 0-12.417-13.265-9.182-32.406Z" fill="#FFD348"/><path fill-rule="evenodd" clip-rule="evenodd" d="M78.697 214.779a32.088 32.088 0 0 0-6.005 3.837c2.3.813 4.832 1.663 7.47 2.474a36.248 36.248 0 0 1 6.707-3.962 331.073 331.073 0 0 1-8.172-2.349Z" fill="#FFE568"/><path fill-rule="evenodd" clip-rule="evenodd" d="M76.855 273.974h.006s-12.42-13.269-9.184-32.409c.074-.436.163-.856.25-1.277a518.988 518.988 0 0 1-6.716-2.787c-.08.404-.159.809-.224 1.225-2.723 17.298 4.214 29.852 6.657 32.419l.015.005 1.104.32.408.119.954.281.504.15c.336.096.682.206 1.032.311l.472.143a233.726 233.726 0 0 1 3.223 1.015c.528.17 1.018.325 1.5.485Z" fill="#E85D1C" style="mix-blend-mode:multiply" opacity=".1"/><path fill-rule="evenodd" clip-rule="evenodd" d="M75.36 273.485c.506.162.99.321 1.463.48l.034.011h.006a41.261 41.261 0 0 1-9.089-19.142 266.694 266.694 0 0 1-7.096-2.68c1.153 10.174 5.216 17.146 6.968 18.988h.01l1.1.319h.01l.293.085c.441.128.895.262 1.363.402l.21.062 1.02.308h.009l.472.142a230.984 230.984 0 0 1 3.22 1.014l.007.011Z" fill="#E85D1C" style="mix-blend-mode:multiply" opacity=".3"/><path fill-rule="evenodd" clip-rule="evenodd" d="M264.95 193.713s-2.965-1.069-14.046 3.228c-11.081 4.297-75.986 26.839-149.479 21.561 0 0-15.152-2.076-24.424 19.276-9.272 21.353 8.75 36.471 8.75 36.471s25.223 14.397 86.103 17.221c58.557 2.715 86.802-3.844 99.205-7.016 12.87-3.29 17.282-5.913 18.033-7.571.717-1.591-24.142-83.17-24.142-83.17Z" fill="#FFD348"/><path fill-rule="evenodd" clip-rule="evenodd" d="M148.114 260.164c-22.624-.062-48.948-7.712-72.93-16.985-4.46 18.452 10.563 31.071 10.563 31.071s25.223 14.397 86.102 17.221c58.557 2.715 86.802-3.845 99.205-7.016 12.87-3.29 17.282-5.913 18.033-7.571.183-.403-1.286-5.971-3.576-14.047l-45.043-10.548s-40.273 8.017-92.354 7.875Z" fill="#E85D1C" style="mix-blend-mode:multiply" opacity=".1"/><path fill-rule="evenodd" clip-rule="evenodd" d="M264.949 193.713s-2.964-1.069-14.046 3.228c-11.082 4.297-75.988 26.839-149.483 21.561 0 0-12.792-1.737-22.06 14.547 61.063 20.344 131.633 4.729 154.163-2.397l32.599-10.753 4.879-6.193c-3.471-11.526-6.052-19.993-6.052-19.993Z" fill="#FFDA60"/><path fill-rule="evenodd" clip-rule="evenodd" d="M249.695 207.991s16.389-12.544 10.899-11.333c-5.489 1.211-29.477 13.198-79.587 21.314a295.968 295.968 0 0 1-85.75 1.24 22.782 22.782 0 0 0-7.64 3.962c12.559 2.963 36.584 7.476 69.498 5.274 52.784-3.529 83.224-16.475 92.58-20.457Z" fill="#FFE568"/><path d="M79.36 233.049c61.063 20.344 131.633 4.729 154.163-2.397" stroke="#FFEAA8" stroke-width="3"/><path fill-rule="evenodd" clip-rule="evenodd" d="M246.845 267.088c-9.777 3.47-84.934 20.152-171.522-9.669a36.22 36.22 0 0 0 10.424 16.831s25.222 14.397 86.102 17.221c58.557 2.716 86.802-3.845 99.205-7.016 12.871-3.29 17.282-5.913 18.033-7.571.232-.511-2.193-9.332-5.584-21.047l-36.658 11.251Z" fill="#FECB2F"/><path fill-rule="evenodd" clip-rule="evenodd" d="M289.088 276.881a12.25 12.25 0 0 0-.554-2.926l-20.511-.946c-23.686 10.753-125.771 24.292-192.699-15.59a32.658 32.658 0 0 0 3.777 8.727 35.808 35.808 0 0 0 6.646 8.104s25.222 14.397 86.102 17.221c58.557 2.715 86.802-3.845 99.205-7.016 12.871-3.292 17.283-5.917 18.034-7.574Z" fill="#E85D1C" style="mix-blend-mode:multiply" opacity=".3"/><path d="M246.845 267.088c-9.777 3.47-84.934 20.152-171.522-9.669" stroke="#FFE568" stroke-width="3"/><path fill-rule="evenodd" clip-rule="evenodd" d="M100.395 245.365c-5.06-1.09-7.514-1.647-11.124-2.25-6.277-1.047-7.094 7.172-2.242 9.899a41.254 41.254 0 0 0 12.05 4.408c2.49.561 5.042.801 7.592.714 2.438-.131 4.709-1.57 5.257-3.755a5.643 5.643 0 0 0-3.163-6.631 41.209 41.209 0 0 0-8.37-2.385Z" fill="#16A461"/><path fill-rule="evenodd" clip-rule="evenodd" d="M87.029 253.011a41.254 41.254 0 0 0 12.05 4.408c2.49.561 5.042.801 7.592.714a5.74 5.74 0 0 0 5.03-3.126c-9.245-2.315-18.576-5.26-27.686-8.533a6.206 6.206 0 0 0 3.014 6.537Z" fill="#16935D"/><path fill-rule="evenodd" clip-rule="evenodd" d="M103.859 256c-.576-.044-.859-.07-1.427-.13-.576-.617-.857-.93-1.395-1.565-3.164-3.802-4.316-5.761-6.359-6.472-1.377-.481-2.91-.428-3.796 1.29a3.624 3.624 0 0 0-.031 2.961c-.68-.032-1.02-.055-1.7-.116a4.626 4.626 0 0 1 .351-3.867 4.38 4.38 0 0 1 5.589-1.976c2.39.836 3.835 2.993 6.403 6.107.369.471.559.705.949 1.166l.049.006a69.391 69.391 0 0 0 1.037-5.742c.638.063.961.088 1.605.124a69.928 69.928 0 0 1-1.275 8.214Z" fill="#FFD348"/><path fill-rule="evenodd" clip-rule="evenodd" d="M264.95 193.712c-2.883.769-12.07 9.834-18.332 18.149-6.262 8.315-12.639 15.377-13.095 18.791-.457 3.415 4.669 15.258 6.945 21.634 2.277 6.377 5.352 13.551 6.377 14.8 1.024 1.249 15.372 4.325 21.178 5.921 5.807 1.596 19.015 4.325 21.065 3.872 2.05-.453 21.648-21.112 31.545-34.652a296.986 296.986 0 0 0 20.368-31.565c.796-1.707.806-4.833-3.407-5.517-4.214-.683-23.344-3.112-38.486-5.465-14.169-2.201-30.97-6.814-34.158-5.968Z" fill="#F8E9D0"/><path fill-rule="evenodd" clip-rule="evenodd" d="M339.427 205.711a6.34 6.34 0 0 0-1.833-.565c-4.212-.683-23.344-3.112-38.486-5.465-14.169-2.203-30.97-6.815-34.159-5.969-2.883.769-12.07 9.834-18.332 18.149-5.129 6.811-10.329 12.774-12.295 16.589 3.596-1.139 17.308-3.556 45.615-8.812 5.273-.979 11.613-2.221 16.819-3.143a325.24 325.24 0 0 0 42.671-10.784Z" fill="#FCF1E0"/><path fill-rule="evenodd" clip-rule="evenodd" d="M339.426 205.711c3.029 3.859-2.665 7.736-8.825 13.027-6.16 5.292-20.247 15.485-46.36 23.49-27.025 8.285-32.921 8.285-43.771 10.057 2.277 6.377 5.352 13.551 6.377 14.8 1.024 1.25 15.371 4.325 21.178 5.921s19.015 4.325 21.065 3.872c2.05-.453 21.647-21.112 31.545-34.652a296.97 296.97 0 0 0 20.366-31.565 3.598 3.598 0 0 0-1.575-4.95Z" fill="#F5DFCE"/><path fill-rule="evenodd" clip-rule="evenodd" d="M332.034 206.193s-20.217-1.189-35.301-3.783c-13.759-2.366-32.483-6.247-36.135-5.749a102.81 102.81 0 0 0-10.899 11.333c1.413-.922 8.02-1.068 26.909.007 15.875.902 46.44.645 55.426-1.808Z" fill="#FFF8ED"/><path fill-rule="evenodd" clip-rule="evenodd" d="M339 214.276c-9.082 14.992-38.467 43.927-70.976 58.732 5.808 1.594 19.015 4.325 21.065 3.872 2.05-.453 21.647-21.112 31.545-34.652 8.536-11.677 15.185-22.466 18.366-27.952Z" fill="#EDC1AD"/><path fill-rule="evenodd" clip-rule="evenodd" d="M337.594 205.146c-3.882-.629-20.427-2.741-34.849-4.91 0 0-9.809 8.733-4.372 24.396 5.437 15.663 22.26 17.596 22.26 17.596a296.917 296.917 0 0 0 20.368-31.564c.797-1.708.806-4.833-3.407-5.518Z" fill="#194A72"/><path fill-rule="evenodd" clip-rule="evenodd" d="m337.028 205.058-.362-.054-.203-.031-.362-.054-.288-.041-.357-.052-.325-.046-.395-.056-.341-.048-.469-.065-.306-.043-.577-.08-.278-.038c-6.93-.961-19.082-2.568-30.018-4.213a21.36 21.36 0 0 0-5.988 16.257c22.903-4.057 45.237-9.577 40.838-11.348l-.424-.066-.145-.022Z" fill="#29688C"/><path fill-rule="evenodd" clip-rule="evenodd" d="M341.166 210.245a4.022 4.022 0 0 0 .107-.362c.018-.068.032-.136.048-.205a4.37 4.37 0 0 0 .031-.165c.01-.055.017-.128.026-.192.009-.064.015-.122.02-.185 0-.048 0-.096.006-.146a3.701 3.701 0 0 0-.008-.459c0-.034 0-.068-.007-.102a4.525 4.525 0 0 0-.039-.26l-.019-.107a3.143 3.143 0 0 0-.068-.266l-.027-.086a3.294 3.294 0 0 0-.106-.283l-.01-.022a3.136 3.136 0 0 0-.616-.915l-.007-.009a3.98 3.98 0 0 0-.27-.249l-.061-.05a3.672 3.672 0 0 0-.304-.22l-.075-.047a4.259 4.259 0 0 0-.361-.205c3.028 3.859-2.665 7.736-8.825 13.027-3.976 3.416-13.466 9.051-25.706 15.984 6.727 6.226 15.75 7.849 15.738 7.507A297.066 297.066 0 0 0 341 210.664c.046-.097.089-.202.128-.309.015-.035.025-.078.038-.11Z" fill="#123668"/><path fill-rule="evenodd" clip-rule="evenodd" d="M297.818 208.475c13.907-.043 28.471-.713 34.213-2.281 0 0-17.094-1.006-31.573-3.185a21.662 21.662 0 0 0-2.64 5.466Z" fill="#3C8DAA"/><path fill-rule="evenodd" clip-rule="evenodd" d="M322.391 239.798c.44-.613.875-1.224 1.304-1.832l.059-.082c.448-.633.888-1.261 1.32-1.885l.327-.472c.397-.572.788-1.139 1.174-1.701l.102-.151a327.237 327.237 0 0 0 2.573-3.818l.138-.205c.384-.577.757-1.144 1.12-1.701l.261-.399.956-1.471.13-.201c.35-.542.69-1.072 1.021-1.593l.217-.341c.292-.458.578-.909.857-1.352l.122-.192c.315-.504.622-.994.918-1.472.051-.079.096-.159.148-.238l.785-1.271c.028-.048.059-.097.089-.145.28-.459.55-.902.809-1.331l.086-.141c.248-.41.487-.808.715-1.189l.034-.056.697-1.175.026-.044.621-1.057c-4.156 6.859-12.57 16.638-23.579 26.646a27.764 27.764 0 0 0 5.213 1.306c.477-.652.947-1.3 1.409-1.945l.348-.492Z" fill="#0E2D54"/><path fill-rule="evenodd" clip-rule="evenodd" d="M99.923 219.639c-.472 3.473 1.102 9.337 9.803 12.514 8.7 3.178 21.335.622 22.698.622 1.364 0 2.875.907 1.967 5.9-.908 4.993.607 11.838.607 11.838a3.54 3.54 0 0 0-1.212 4.538c1.21 3.136-1.21 6.151-1.21 9.483 0 3.332-1.966 12.542 6.504 13.454 8.471.912 29.497-8.05 29.194-10.675-.303-2.626-6.412-4.193-9.786-9.158-3.375-4.965-2.245-35.504-15.211-35.972-12.965-.468-43.354-2.544-43.354-2.544Z" fill="url(#b)"/><path fill-rule="evenodd" clip-rule="evenodd" d="M107.54 140.077s-7.294-2.247-13.612 4.373c-5.117 5.361-9.349 13.678-5.142 16.939 4.206 3.261 18.754-21.312 18.754-21.312Z" fill="#28BBE2"/><path fill-rule="evenodd" clip-rule="evenodd" d="M107.54 140.078a32.05 32.05 0 0 0-12.59 9.707c-3.921 4.885-6.291 4.964-6.348 2.21-1.837 3.793-2.3 7.473.18 9.395 4.211 3.257 18.758-21.312 18.758-21.312Z" fill="#242357" style="mix-blend-mode:multiply" opacity=".2"/><path fill-rule="evenodd" clip-rule="evenodd" d="M83.667 170.87c-2.06-.311-6.273.78-8.57 6.044-2.296 5.263-3.957 17.645-.639 21.986 3.319 4.341 7.545 3.225 7.545 3.225l1.664-31.255Z" fill="#28BBE2"/><path fill-rule="evenodd" clip-rule="evenodd" d="M77.314 186.537c-.865 5.935-3.903 5.958-4.716 4.316.018 3.315.542 6.319 1.862 8.046 3.319 4.34 7.545 3.225 7.545 3.225l1.664-31.254s-4.677 4.176-6.355 15.667Z" fill="#242357" style="mix-blend-mode:multiply" opacity=".2"/><path fill-rule="evenodd" clip-rule="evenodd" d="M137.164 138.722c-3.984-2.246-16.626-4.132-26.45-.315-9.825 3.817-24.381 23.304-29.873 39.429-5.49 16.126-.844 30.765 16.748 32.808 17.591 2.044 26.672-.384 30.945-2.425 4.273-2.042 11.081-16.768 14.097-33.202 3.015-16.435-5.467-36.295-5.467-36.295Z" fill="#28BBE2"/><path fill-rule="evenodd" clip-rule="evenodd" d="M137.164 138.722c-1.136-.64-9.264-1.613-17.596.989-7.684 2.403-20.47 11.684-27.347 24.577-6.876 12.892.656 38.21 0 40.051-.515 1.442-5.933.968-10.318-2.373 3.007 4.613 8.157 7.804 15.685 8.678 17.593 2.043 26.672-.384 30.945-2.425 4.273-2.042 11.081-16.768 14.097-33.202 3.015-16.435-5.466-36.295-5.466-36.295Z" fill="#242357" style="mix-blend-mode:multiply" opacity=".2"/><path opacity=".2" fill-rule="evenodd" clip-rule="evenodd" d="M79.902 172.234c-2.256 1.294-4.677 4.572-5.557 9.025-.88 4.452 1.165 3.779 1.767 1.769.603-2.009 1.425-6.625 3.709-9.208 1.86-2.105.985-2.104.08-1.586ZM100.704 140.839a14.223 14.223 0 0 0-7.688 5.873c-1.363 2.435.136 3.04 1.634 1.408 1.497-1.632 4.413-5.335 7.344-6.424 2.931-1.09 1.302-1.618-1.29-.857ZM120.433 137.181c.726.096-1.883.819-5.853 2.897-4.246 2.222-10.483 7.34-13.07 9.835-2.587 2.496-4.2.236 2.607-6.071 5.181-4.805 12.851-7.101 16.316-6.661Z" fill="#F5FFFE"/><path fill-rule="evenodd" clip-rule="evenodd" d="M161.111 155.183c.997 1.893 4.849 14.025 1.393 20.672-3.456 6.646-7.19 2.306-7.19 2.306l3.364-22.254 2.433-.724Z" fill="#007CB6"/><path fill-rule="evenodd" clip-rule="evenodd" d="M160.88 159.572a19.456 19.456 0 0 0-.803-4.083l-1.399.416-3.364 22.254a4.43 4.43 0 0 0 2.441 1.36c-.32-.594-.535-.923-.535-.923s4.823-7.306 3.66-19.024Z" fill="#00629E"/><path fill-rule="evenodd" clip-rule="evenodd" d="M163.152 174.3a5.774 5.774 0 0 0-6.464 0c-1.86 1.449-2.384 6.262-2.384 6.262l1.793 11.443a8.164 8.164 0 0 0 3.518 1.681 4.366 4.366 0 0 0 3.537-1.477c.75-.633 2.438-.633 3.07-2.321.633-1.688.634-3.692 1.477-4.853.844-1.161 3.46-3.059 2.307-6.119-1.153-3.06-1.642-4.493-.954-6.858.609-2.092 1.615-3.882.5-5.238-1.386-1.687-4.256-.354-5.64 1.862a17.694 17.694 0 0 1-.76 5.618Z" fill="#F8C6A3"/><path fill-rule="evenodd" clip-rule="evenodd" d="M164.201 181.535c-.021-.727-2.817-1.528-4.778-3.476-1.962-1.948 0-5.215 2.334-4.441a5.603 5.603 0 0 0-5.073.68c-1.86 1.449-2.384 6.262-2.384 6.262l1.793 11.443a8.153 8.153 0 0 0 3.518 1.681 3.524 3.524 0 0 0 2.508-.649 1.793 1.793 0 0 1-2.087-.527c-.961-1.075.338-3.357.983-4.848.645-1.49-2.979-2.649-1.153-5.862.896-1.581 4.363.465 4.339-.263ZM167.771 166.066a5.365 5.365 0 0 0-3.859 2.616 17.7 17.7 0 0 1-.761 5.619s1.969 1.271 3.381 2.259a7.298 7.298 0 0 1-1.072-2.554 9.045 9.045 0 0 1 .139-5.836 4.116 4.116 0 0 1 2.172-2.104Z" fill="#F2A37C"/><path opacity=".3" fill-rule="evenodd" clip-rule="evenodd" d="M168.375 171.497c-.925 2.056-.116 4.723.661 6.62.778 1.897.893 3.665-1.063 6.578 1.018-1.18 3.076-3 2.035-5.781-1.148-3.059-1.644-4.493-.956-6.858.61-2.092 1.616-3.882.501-5.238.375.677-.104 2.288-1.178 4.679Z" fill="#fff"/><path fill-rule="evenodd" clip-rule="evenodd" d="M152.46 149.903s5.595-1.241 6.606 8.959c1.164 11.717-3.659 19.023-3.659 19.023s5.611 8.527 2.653 18.695c-1.944 6.68-34.967 13.147-60.472 7.533 0 0 .855-22.82 9.033-38.441a48.321 48.321 0 0 1 21.912-21.275l8.635-.557s3.989 5.114 7.772 6.7c3.783 1.586 7.52-.637 7.52-.637Z" fill="#EFF8FC"/><path fill-rule="evenodd" clip-rule="evenodd" d="m125.218 205.93 11.681-9.35s-14.045 3.036-22.158 1.467c-8.113-1.568-10.035-9.74-7.202-13.352l-2.114-4.812-4.24.515a125.813 125.813 0 0 0-3.596 23.714 99.095 99.095 0 0 0 27.629 1.818ZM143.276 174.179s8.806.288 12.132 3.706a9.326 9.326 0 0 0 1.16-2.221 14.221 14.221 0 0 0-13.292-1.485Z" fill="#CCE4EA"/><path fill-rule="evenodd" clip-rule="evenodd" d="M109.633 182.443c3.609.91 8.352 5.605 17.914 6.232 9.563.627 13.915-2.321 18.368-6.232a24.528 24.528 0 0 1-16.871.402c-10.394-3.584-13.358-12.465-24.008-12.706-.169 0-.331.008-.496.012-3.64 8.829-5.397 18.892-6.23 25.756l11.323-13.464Z" fill="#CCE4EA"/><path fill-rule="evenodd" clip-rule="evenodd" d="M147.411 161.687s-.178 7.673-6.343 9.81c0 0 9.116-.096 9.38-5.44.263-5.344-3.037-4.37-3.037-4.37Z" fill="#A9CBD3"/><path fill-rule="evenodd" clip-rule="evenodd" d="M143.276 153.484s.257 7.606 4.838 8.859c4.743 1.295.878-8.741.235-8.824-.643-.082-5.073-.035-5.073-.035Z" fill="#A9CBD3"/><path fill-rule="evenodd" clip-rule="evenodd" d="M147.157 151.98c-2.378 1.057-3.494 3.889-3.692 5.771-.198 1.881-.179 2.25-.648 2.147a7.727 7.727 0 0 1-4.348-2.147c-2.174-1.955 2.973-9.63 2.973-9.63h.948a4.691 4.691 0 0 1 4.278 2.769l.489 1.09ZM154.87 154.09c1.279 1.448 1.182 4.5 1.279 5.136.097.636 3.235-1.576 3.466-2.773.231-1.196-1.622-6.385-1.622-6.385l-3.123 4.022Z" fill="#A9CBD3"/><path fill-rule="evenodd" clip-rule="evenodd" d="m130.071 145.746 6.098-.394a21.276 21.276 0 0 1 0 15.504c-3.242 8.595-9.721 12.67-17.071 11.896l10.973-27.006Z" fill="#CCE4EA"/><path fill-rule="evenodd" clip-rule="evenodd" d="m128.529 144.399 6.099-.394a21.284 21.284 0 0 1 0 15.503c-3.243 8.596-9.723 12.67-17.072 11.896l10.973-27.005Z" fill="#007CB6"/><path fill-rule="evenodd" clip-rule="evenodd" d="M117.557 171.404c1.122.117 2.254.115 3.375-.006 3.371-3.876 7.378-8.738 9.296-12.023a16.405 16.405 0 0 0 1.075-14.293 2.918 2.918 0 0 0-.822-.809l-1.951.126-10.973 27.005Z" fill="#00629E"/><path fill-rule="evenodd" clip-rule="evenodd" d="M116.407 168.656S86.4 205.928 84.162 208.501c-2.238 2.574-2.685 5.148-7.834 5.036-5.148-.111-8.952.895-13.204 1.902-4.253 1.007-7.273.673-6.939-1.791.335-2.464 5.26-5.596 5.26-5.596l-10.519-3.804a6.415 6.415 0 0 1 5.035-2.463c3.469-.112 9.176 1.456 10.855 1.456 1.68 0 3.246-1.12 6.38-5.373 3.133-4.252 27.08-36.48 27.08-36.48l16.131 7.268Z" fill="#F8C6A3"/><path fill-rule="evenodd" clip-rule="evenodd" d="m96.85 166-7.304 9.832c2.223 2.632 4.506 4.843 5.478 5.086 1.261.316 4.594-.568 6.161-.52 0 0-18.984 25.236-21.403 28.018-2.42 2.781-6.988 1.798-11.17 2.999-4.181 1.201-9.353 5.05-12.286 3.364.662 1.407 3.316 1.486 6.799.661 4.251-1.008 8.057-2.018 13.204-1.902 5.148.116 5.597-2.462 7.834-5.036 1.694-1.947 19.288-23.763 27.747-34.263L96.85 166Z" fill="#F2A37C"/><path fill-rule="evenodd" clip-rule="evenodd" d="M64.371 206.48s-10.338-2.491-11.229-2.828c-.778-.294-.031-1.236.557-1.427a6.048 6.048 0 0 0-2.773 2.025l10.519 3.804c.947-.574 1.924-1.1 2.926-1.574Z" fill="#F2A37C"/><path opacity=".3" fill-rule="evenodd" clip-rule="evenodd" d="M73.196 197.87c-3.134 4.253-4.7 5.372-6.38 5.372-1.679 0-7.385-1.567-10.855-1.455-.259.01-.518.033-.774.07 3.6.05 7.613 1.576 9.604 2.093 1.992.517 3.844.961 6.184-1.725 2.339-2.686 18.053-25.693 18.058-25.7a13105.2 13105.2 0 0 0-15.837 21.345Z" fill="#fff"/><path fill-rule="evenodd" clip-rule="evenodd" d="M128.526 144.399c-1.877-2.979-11.032-2.801-18.373 3.46-8.347 7.119-16.229 15.261-16.229 15.261s1.09 3.979 7.214 9.368a16.685 16.685 0 0 0 11.456 4.414s11.209-11.963 14.857-18.207a16.411 16.411 0 0 0 1.075-14.296Z" fill="#DEF1F8"/><path fill-rule="evenodd" clip-rule="evenodd" d="M101.143 172.486a16.684 16.684 0 0 0 11.455 4.414s11.208-11.963 14.857-18.208a16.008 16.008 0 0 0 2.174-6.978l-.011-.051c-2.989 6.887-17.298 22.797-35.69 11.455 0 0 1.089 3.979 7.215 9.368Z" fill="#CCE4EA"/><path fill-rule="evenodd" clip-rule="evenodd" d="M125.23 143.889a20.469 20.469 0 0 0-12.845 3.716c-3.494 2.478-6.092 5.359 0 5.752 6.092.393 12.17-4.087 13.705-5.752 1.457-1.576 2.384-3.446-.86-3.716Z" fill="#E9F6FB"/><path fill-rule="evenodd" clip-rule="evenodd" d="M122.481 144.706c-3.663.405-6.279 1.6-7.734 3.099s7.006.427 9.64-.703c3.242-1.388 2.158-2.847-1.906-2.396Z" fill="#EFF8FC"/><path fill-rule="evenodd" clip-rule="evenodd" d="M155.709 144.458s3.195-.23 4.686 1.814c1.275 1.747 1.961 4.962.715 8.911-1.365 4.325-3.254 4.388-3.652 4.309-.398-.079.044-4.421-1.482-5.97a535.83 535.83 0 0 1-3.519-3.619s1.503-4.496 3.252-5.445Z" fill="#DEF1F8"/><path fill-rule="evenodd" clip-rule="evenodd" d="M161.015 147.388a6.19 6.19 0 0 0-.621-1.117c-1.492-2.044-4.686-1.814-4.686-1.814-1.75.949-3.251 5.445-3.251 5.445s1.994 2.073 3.519 3.619c.823.836 1.073 2.486 1.191 3.839.331-2.769-.288-4.643-1.021-7.233a2.722 2.722 0 0 1 1.459-3.181 3.675 3.675 0 0 1 3.41.442Z" fill="#CCE4EA"/><path fill-rule="evenodd" clip-rule="evenodd" d="M159.837 148.556c-1.362-.806-1.934 1.411-1.456 3.844a18.104 18.104 0 0 1-.077 5.581c-.042.673 1.186-.251 2.063-2.787.876-2.535 1.125-5.66-.53-6.638Z" fill="#E9F6FB"/><path fill-rule="evenodd" clip-rule="evenodd" d="M143.263 137.363a52.857 52.857 0 0 1-6.099 6.479s3.701 8.162 11.186 9.68c0 0 5.243-3.407 7.4-8.671 0 0-.903-3.071-5.784-5.782s-6.703-1.706-6.703-1.706Z" fill="#F8C6A3"/><path fill-rule="evenodd" clip-rule="evenodd" d="M149.962 139.068c-4.88-2.711-6.699-1.706-6.699-1.706s-.288.395-.947 1.168l-.416.48s1.144 3.749 6.032 6.504a18.205 18.205 0 0 0 6.241 2.21 16.133 16.133 0 0 0 1.574-2.87s-.904-3.075-5.785-5.786Z" fill="#F2A37C"/><path fill-rule="evenodd" clip-rule="evenodd" d="M149.962 139.068c-4.88-2.711-6.699-1.706-6.699-1.706s-.179.241-.533.673c3.904 4.295 9 5.766 13.016 6.815 0 0-.902-3.071-5.784-5.782Z" fill="#DD8964"/><path fill-rule="evenodd" clip-rule="evenodd" d="M148.113 162.345c-.124 2.049-.769 7.634-7.137 8.154-6.369.52-10.781-.202-20.522-8.154-9.741-7.951-14.807-11.869-23.77-10.365-2.988.725-13.119 9.946-13.248 12.285-.129 2.339 11.43 12.857 12.599 13.768 1.168.91 7.943-.849 14.98 2.105 6.108 2.563 11.917 8.545 25.353 6.467 13.437-2.078 19.516-16.049 17.582-24.259.001-.001-1.686-2.055-5.837-.001Z" fill="#EA4D5F"/><path fill-rule="evenodd" clip-rule="evenodd" d="M114.741 157.8a43.929 43.929 0 0 0-5.826-3.844 65.318 65.318 0 0 1-21.592 15.734c2.481 2.649 5.55 5.532 7.334 7.14 9.418-5.374 17.313-14.712 20.084-19.03ZM123.706 186.043a27.085 27.085 0 0 0 8.219.97 42.007 42.007 0 0 0 1.072-17.091 21.822 21.822 0 0 1-4.176-1.754 40.645 40.645 0 0 1-5.115 17.875ZM142.38 184.694a20.421 20.421 0 0 0 4.964-3.501 29.2 29.2 0 0 0-4.962-10.923 9.53 9.53 0 0 1-1.404.228 33.684 33.684 0 0 1-2.995.123 23.019 23.019 0 0 1 4.397 14.073ZM115.501 182.43c4.871-5.981 7.328-13.141 8.445-17.379a81.702 81.702 0 0 1-3.491-2.706c-.425-.348-.832-.673-1.239-1.01-3.222 8.093-8.953 14.224-12.554 17.502a22.03 22.03 0 0 1 4.354 1.299 48.04 48.04 0 0 1 4.485 2.294ZM147.648 165.156a7.603 7.603 0 0 1-2.018 3.431 18.252 18.252 0 0 1 6.677 5.592 22.83 22.83 0 0 0 1.513-4.494 19.53 19.53 0 0 0-6.172-4.529Z" fill="#EFF8FC"/><path fill-rule="evenodd" clip-rule="evenodd" d="M148.114 162.344a9.751 9.751 0 0 1-2.063 5.821 9.45 9.45 0 0 0 2.772-4.621s4.02 1.28 5.128-1.202l-2.952-.884a8.204 8.204 0 0 0-2.885.886Z" fill="#242357" style="mix-blend-mode:multiply" opacity=".2"/><path fill-rule="evenodd" clip-rule="evenodd" d="M148.103 150.34c1.254-.524 4.734-1.153 6.404.59 1.67 1.744 2.055 3.828 1.202 6.891a19.168 19.168 0 0 1-1.758 4.524 5.785 5.785 0 0 1-5.838 0 11.653 11.653 0 0 1-3.903-8.698 9.381 9.381 0 0 1 3.893-3.307Z" fill="#EA4D5F"/><path fill-rule="evenodd" clip-rule="evenodd" d="M154.328 161.621a16.8 16.8 0 0 0-9.985-6.429c.142.992.402 1.964.777 2.894a19.934 19.934 0 0 1 7.119 4.92 4.956 4.956 0 0 0 1.711-.661s.15-.247.378-.724ZM149.074 150.037a6.446 6.446 0 0 0-.97.302c-.817.392-1.581.887-2.273 1.472a18.675 18.675 0 0 1 9.892 5.958 9.482 9.482 0 0 0 .395-3.435 17.196 17.196 0 0 0-7.044-4.297Z" fill="#EFF8FC"/><path fill-rule="evenodd" clip-rule="evenodd" d="M147.156 157.751c-.644-3.719.686-7.126 2.522-7.835a7.653 7.653 0 0 0-1.575.424 9.381 9.381 0 0 0-3.893 3.307 11.653 11.653 0 0 0 3.902 8.697 6.494 6.494 0 0 0 2.864.77c-1.691-.644-3.233-1.977-3.82-5.363ZM135.428 184.107c-11.725-.256-15.365-4.421-24.459-8.471-4.404-1.961-11.605-1.5-13.381-2.314-2.21-1.014-11.282-8.782-11.565-9.605-.495-1.442 5.664-8.534 5.664-8.534-3.834 3.114-8.164 7.557-8.248 9.081-.13 2.337 11.43 12.857 12.599 13.768 1.168.91 7.943-.849 14.98 2.105 6.108 2.563 11.917 8.545 25.353 6.467a20.54 20.54 0 0 0 13.801-8.694c-2.837 3.291-6.513 6.378-14.744 6.197Z" fill="#242357" style="mix-blend-mode:multiply" opacity=".2"/><path opacity=".15" fill-rule="evenodd" clip-rule="evenodd" d="M105.411 153.769a19.246 19.246 0 0 0-7.836-.702c-1.526.276-4.267 2.825-5.917 4.857-2.857 3.515 4.236-.202 14.197 3.95 9.96 4.151 22.781 10.873 25.336 10.047 2.556-.825-4.906-3.551-10.763-8.265-4.871-3.934-10.848-8.618-15.017-9.887ZM153.951 151.32c-1.706-1.12-2.421 1.894-2.249 5.132.172 3.239.547 5.78 1.477 5.382.93-.398 2.445-4.406 2.333-6.641-.111-2.234-.709-3.312-1.561-3.873Z" fill="#fff"/><path fill-rule="evenodd" clip-rule="evenodd" d="M141.637 139.31a4.259 4.259 0 0 0-3.511-.852c-2.361.304-9.139 5.026-9.596 5.941-.456.915-.328 4.856 4.421 10.358 2.644 3.066 7.16 4.951 8.379 5.332 1.218.38.507-6.823 6.779-9.749 0 0 .335-1.361-2.691-2.657-2.211-.944-5.342-3.844-5.494-6.523l1.713-1.85Z" fill="#DEF1F8"/><path fill-rule="evenodd" clip-rule="evenodd" d="m139.916 141.16 1.721-1.85a4.259 4.259 0 0 0-3.511-.852c-2.361.304-9.139 5.026-9.596 5.941-.456.915-.328 4.856 4.421 10.358-2.644-3.78-2.298-9.309-.209-10.915 2.088-1.607 5.142-4.068 6.191-1.391 1.048 2.676 5.285 4.58 5.285 4.581-2.004-1.285-4.176-3.646-4.302-5.872Z" fill="#CCE4EA"/><path fill-rule="evenodd" clip-rule="evenodd" d="M144.565 148.993c1.088-.61 3.665.137 1.771 1.392-2.821 1.87-4.608 6.621-4.94 7.582-.333.961-2.575.113-4.378-1.02s-3.212-2.347-3.595-3.566c-.165-.529 3.819 2.101 6.145.141 2.326-1.959 2.81-3.303 4.997-4.529Z" fill="#E9F6FB"/><path fill-rule="evenodd" clip-rule="evenodd" d="M128.842 125.979c-1.009 4.391.652 7.061 1.78 8.189 1.127 1.127 3.442 1.839 4.213-.594a6.97 6.97 0 0 0 4.697 3.923c3.502.831 4.679-1.668 4.679-1.668l-5.638-8.662-9.731-1.188Z" fill="#D65132"/><path fill-rule="evenodd" clip-rule="evenodd" d="M128.842 125.979a11.06 11.06 0 0 0-.272 3.459 6.906 6.906 0 0 0 7.801 1.08s1.615 5.309 6.412 6.698a3.444 3.444 0 0 0 1.428-1.389l-5.638-8.662-9.731-1.186Z" fill="#BA422B"/><path fill-rule="evenodd" clip-rule="evenodd" d="M167.233 92.315c7.62 0 16.958 5.366 19.105 13.742 2.147 8.377 1.502 15.349 2.576 20.182.672 3.019 1.171 6.712-.22 9.929a15.11 15.11 0 0 1-.878 1.725c-2.278 3.844-6.583 6.591-12.639 8.016a37.294 37.294 0 0 1-20.874-1.594c-8.265-3.435-13.797-7.235-17.339-16.466a24.975 24.975 0 0 1 9.445-29.302c10.627-7.2 20.824-6.232 20.824-6.232Z" fill="#F8C6A3"/><path fill-rule="evenodd" clip-rule="evenodd" d="M138.704 118.564c.161 1.465 1.499 2.853 4.09 1.896 2.591-.956 7.425-5.41 8.361-17.208l-12.451 15.312ZM167.232 92.314a30.252 30.252 0 0 0-9.653 1.12c-3.102 1.922-5.877 3.556-5.877 3.556 3.601 7.744 11.411 12.508 16.359 13.575 4.947 1.066 10.874 1.057 13.07-1.972 2.061-2.844-1.096-5.774-1.096-5.774a12.556 12.556 0 0 0 5.944 2.103c-2.662-7.718-11.475-12.608-18.747-12.608Z" fill="#F2A37C"/><circle opacity=".5" cx="152.353" cy="127.219" r="8.429" fill="#EE9681"/><path opacity=".5" fill-rule="evenodd" clip-rule="evenodd" d="M181.151 127.448a8.428 8.428 0 0 0 7.656 8.391c1.228-3.141.755-6.687.106-9.61a49.096 49.096 0 0 1-.768-7.081 8.425 8.425 0 0 0-6.994 8.3Z" fill="#EE9681"/><path fill-rule="evenodd" clip-rule="evenodd" d="M188.602 124.469a7.447 7.447 0 0 1-4.524 1.55c-4.308 0-7.816-3.748-7.909-8.39a1.93 1.93 0 0 1-.262-.119c-.221-.129-.436-.267-.651-.405 0 .113-.016.223-.016.337 0 .056.008.11.009.165a2.272 2.272 0 0 0-.967-.165 4.76 4.76 0 0 0-2.416.592c.01-.192.03-.391.03-.592v-.03a3.756 3.756 0 0 0-.37.397 1.296 1.296 0 0 1-.591.452 9.925 9.925 0 0 1-10.301 9.089 9.926 9.926 0 0 1-9.517-9.908c0-.275.018-.547.041-.817a1.782 1.782 0 0 1-.349-.213l-.509-.395c-.019.15-.033.3-.048.451l-14.155-2.114.741 4.081 13.445.322a10.844 10.844 0 0 0 21.359.998 5.899 5.899 0 0 1 2.68-.641c.372-.008.743.054 1.092.185a9.04 9.04 0 0 0 8.665 7.64 8.34 8.34 0 0 0 4.686-1.455l-.163-1.015Z" fill="#F2A37C"/><path fill-rule="evenodd" clip-rule="evenodd" d="M188.602 124.469a7.454 7.454 0 0 1-4.525 1.55 7.325 7.325 0 0 1-2.691-.522 8.533 8.533 0 0 0-.166.925c.915.34 1.882.515 2.858.517a8.335 8.335 0 0 0 4.686-1.455l-.108-.68c-.011-.075-.025-.147-.036-.223l-.018-.112Z" fill="#EB7C74"/><path opacity=".3" fill-rule="evenodd" clip-rule="evenodd" d="M188.393 128.085c.588 4.381.356 8.289-4.045 12.28-5.146 4.665-14.564 6.509-20.747 6.139a36.08 36.08 0 0 0 11.577-.602c6.055-1.425 10.36-4.176 12.639-8.016a15.11 15.11 0 0 0 .878-1.725c1.391-3.218.89-6.91.219-9.928a41.112 41.112 0 0 1-.694-5.935l-.15-.107c.236 1.336-.266 3.514.323 7.894Z" fill="#fff"/><path fill-rule="evenodd" clip-rule="evenodd" d="M160.708 128.275c.039-.305.061-.611.066-.918a9.933 9.933 0 0 1-9.545-8.485 8.562 8.562 0 0 0-.898.171 10.849 10.849 0 0 0 10.377 9.232Z" fill="#EB7C74"/><path opacity=".3" fill-rule="evenodd" clip-rule="evenodd" d="M151.338 120.041c0 .961-1.222 1.729-2.728 1.729-1.506 0-2.727-.775-2.727-1.729 0-.955 1.221-1.73 2.727-1.73 1.506 0 2.728.773 2.728 1.73Z" fill="#fff"/><path fill-rule="evenodd" clip-rule="evenodd" d="M160.397 125.211c4.283 0 8.587-3.161 9.24-9.258.652-6.097-3.805-11.967-11.279-9.747-7.474 2.22-7.639 11.112-5.382 14.57a9.155 9.155 0 0 0 7.421 4.435Z" fill="url(#c)" style="mix-blend-mode:multiply" opacity=".7"/><path fill-rule="evenodd" clip-rule="evenodd" d="M186.355 106.145a8.608 8.608 0 0 0-5.335.022c-6.861 2.033-7.01 10.197-4.937 13.37a8.395 8.395 0 0 0 6.811 4.071 8.119 8.119 0 0 0 5.408-2.081c-.32-4.251-.438-9.468-1.947-15.382Z" fill="url(#d)" style="mix-blend-mode:multiply" opacity=".7"/><path fill-rule="evenodd" clip-rule="evenodd" d="M136.095 113.511a9.008 9.008 0 0 1 2.609 5.053c.282 1.984 3.452 2.773 7.732-3.262 5.916-8.34 5.266-18.311 5.266-18.311a48.909 48.909 0 0 0 13.461 10.031c7.837 3.777 12.464 2.767 14.73 1.809s3.871-3.697 1.793-7.096c0 0 3.871 3.021 11.33 2.738 7.458-.284 10.48-3.871 8.402-6.61-2.078-2.737-6.066-4.88-11.838-6.622 0 0 6.646-.552 6.269-4.233-.377-3.682-9.776-12.672-27.719-10.187-20.162 2.787-23.203 13.094-23.203 13.094s-2.773-1.617-8.831-1.57c-4.278.034-7.094 1.749-7.377 2.715-.284.967.335 1.525 2.287 2.272a41.659 41.659 0 0 1 4.421 1.893 26.624 26.624 0 0 0-9.542 5.396c-4.815 4.153-4.755 7.961-4.249 8.496.948 1.006 3.428-1.361 7.015-1.834 0 0-2.484 5.596-1.826 10.41.659 4.814 9.27-4.182 9.27-4.182Z" fill="#E26644"/><path fill-rule="evenodd" clip-rule="evenodd" d="M156.762 90.176c-2.307.398-3.948 2.314-.783 3.445 3.165 1.13 13.18 5.336 17.906 9.166 5.011 4.062 8.961 4.853 7.728.945a20.92 20.92 0 0 0-9.391-10.85 23.695 23.695 0 0 0-15.46-2.706Z" fill="#EE7249"/><path fill-rule="evenodd" clip-rule="evenodd" d="M176.863 109.617c-5.234-.332-15.074-4.781-24.671-16.421a.47.47 0 0 0-.829.357c.12.918.254 2.13.339 3.439a48.894 48.894 0 0 0 13.461 10.032c5.265 2.536 9.074 2.906 11.7 2.593ZM157.109 79.585c-10.335 4.082-12.182 10.329-12.182 10.329s-2.773-1.617-8.832-1.57c-4.277.033-7.093 1.749-7.376 2.715-.284.967.335 1.526 2.287 2.272a41.68 41.68 0 0 1 4.421 1.893 26.637 26.637 0 0 0-9.543 5.396c-4.814 4.153-4.754 7.961-4.248 8.496.948 1.006 3.428-1.361 7.015-1.834 0 0-2.484 5.596-1.826 10.41.659 4.814 9.266-4.181 9.266-4.181a9.763 9.763 0 0 1 1.931 2.773c.513-.942.892-1.869.541-2.403-1.808-2.761-2.477-6.844-.768-12.032a12.031 12.031 0 0 1 6.602-7.721 9.103 9.103 0 0 1 4.132-.9.452.452 0 0 0 .391-.207.556.556 0 0 0-.022-.452 8.44 8.44 0 0 1-.035-5.121c.921-2.762 2.875-5.132 8.246-7.863ZM138.169 116.612a8.26 8.26 0 0 1 .535 1.952c.156 1.093 1.229 1.842 2.851 1.279a1.435 1.435 0 0 1-1.427-.351 1.636 1.636 0 0 1-.185-.982l3.653.087h.005a12.53 12.53 0 0 0 1.479-1.498l-3.258-.229-3.653-.258ZM193.016 104.473c4.883-.185 7.85-1.789 8.746-3.642-4.09 3.364-13.638.886-17.683-1.016a61.608 61.608 0 0 1-6.09-3.46 16.896 16.896 0 0 1 3.697 5.383s3.872 3.018 11.33 2.735ZM195.848 87.007a5.157 5.157 0 0 0-1.285-2.567c2.185 3.171-1.657 4.053-4.335 4.59-2.677.536-9.849.938-9.849.938s7.034.871 9.201 1.272c0 0 6.646-.55 6.268-4.233Z" fill="#D65132"/><path fill-rule="evenodd" clip-rule="evenodd" d="M132.86 91.68c-2.666-.682-2.655-1.979-1.376-2.555-1.614.587-2.604 1.382-2.766 1.934-.284.968.335 1.526 2.287 2.272a41.659 41.659 0 0 1 4.421 1.893 23.36 23.36 0 0 1 4.049-.81 40.588 40.588 0 0 0-6.615-2.734ZM124.918 106.137c-2.211 1.082-3.49 1.685-3.311.62a3.078 3.078 0 0 0 .03 2.358c.948 1.006 3.428-1.361 7.015-1.834a13.904 13.904 0 0 1 2.12-3.727 56.926 56.926 0 0 0-5.854 2.583Z" fill="#BA422B"/><path fill-rule="evenodd" clip-rule="evenodd" d="M181.965 78.45c-7.215-2.053-22.248-.894-28.581 4.963-2.068 1.913 3.416.693 10.352.795 6.522.21 13.014.978 19.406 2.295 6.952 1.538 11.558 1.115 11.073-.663-.484-1.778-5.244-5.401-12.25-7.39ZM201.271 100.094c.584-1.473-2.473-4.666-7.021-6.428-4.548-1.763-11.109-2.98-12.573-2.425-1.626.619 3.357 7.44 10.721 9.633 6.386 1.901 8.376.466 8.873-.78ZM149.932 96.827c-.961-1.303-4.561.148-6.733 3.866-2.775 4.749-1.73 12.136.213 12.817 1.943.682 4.718-3.91 5.726-7.784 1.008-3.874 1.637-7.756.794-8.9Z" fill="#EE7249"/><path fill-rule="evenodd" clip-rule="evenodd" d="M132.223 89.561c-.982.305-.262 1.463 1.428 1.495 1.706.032 8.2-.333 8.115-.942-.086-.61-5.268-1.882-9.543-.553ZM122.706 106.137c.248.3 1.594-.17 2.852-1.405 1.258-1.235 4.906-5.423 5.216-5.958.309-.536-2.577.46-5.216 2.963-2.639 2.503-3.118 4.08-2.852 4.4Z" fill="#E26644"/><path fill-rule="evenodd" clip-rule="evenodd" d="M188.053 92.56c2.721.673 9.057 1.889 12.708 6.38a20.528 20.528 0 0 0-5.497-3.4 71.897 71.897 0 0 0-7.211-2.98ZM162.069 79.585c3.187-1.276 15.398-1.943 21.262 0 6.929 2.294 9.226 5.257 9.226 5.257a44.662 44.662 0 0 0-12.176-3.845c2.135.087 4.258.365 6.343.834 0 0-3.94-2.5-11.807-2.883a56.76 56.76 0 0 0-12.848.637ZM171.288 93.024c3.784 1.449 8.487 6.53 9.667 10.03a31.419 31.419 0 0 0-4.372-5.555 46.014 46.014 0 0 0-5.295-4.475ZM149.593 98.418c.05 1.834-.708 9.351-4.666 14.092a11.622 11.622 0 0 1 0-5.419c.064 1.133.215 2.26.452 3.37 0 0 2.777-3.469 4.214-12.043Z" fill="#F49A6E"/><path fill-rule="evenodd" clip-rule="evenodd" d="M163.683 105.164c-.125-1.171-2.607-2.297-6.145-.311-3.537 1.987-4.78 5.094-4.531 6.021.249.927 3.46-.423 5.711-1.303 3.786-1.484 5.336-.931 4.965-4.407ZM187.41 111.492a53.786 53.786 0 0 0-.591-3.344 8.934 8.934 0 0 0-3.067-2.71c-3.539-1.987-4.865-.267-4.88.912-.035 2.663 2.306 3.038 4.516 3.798 1.837.629 3.36 1.502 4.022 1.344Z" fill="#F2A37C" style="mix-blend-mode:multiply" opacity=".5"/><path fill-rule="evenodd" clip-rule="evenodd" d="M164.109 103.767c-.16-1.436-3.034-2.178-6.573-.192-3.538 1.986-4.78 5.093-4.531 6.022.249.928 3.46-.424 5.711-1.304 3.788-1.483 5.726-1.539 5.393-4.526Z" fill="#D65132"/><path fill-rule="evenodd" clip-rule="evenodd" d="M160.059 106.137c-3.267 1.063-5.093 1.502-4.941.311.152-1.19 1.911-2.605 2.419-2.873-3.539 1.987-4.781 5.094-4.532 6.022.249.928 3.46-.424 5.711-1.304 3.788-1.483 5.727-1.538 5.393-4.526-.168.757-.78 1.307-4.05 2.37Z" fill="#BA422B"/><path fill-rule="evenodd" clip-rule="evenodd" d="M178.876 105.07c.015-1.178 1.346-2.897 4.88-.911 3.535 1.987 4.242 4.82 3.994 5.751-.249.932-2.073-.258-4.358-1.041-2.218-.759-4.555-1.135-4.516-3.799Z" fill="#D65132"/><path fill-rule="evenodd" clip-rule="evenodd" d="M186.39 108.852c-.988-.597-3.705-1.634-5.366-2.684-1.641-1.04-1.161-2.631.151-2.901a1.928 1.928 0 0 0-2.306 1.804c-.035 2.663 2.306 3.04 4.516 3.798 2.285.784 4.109 1.972 4.358 1.042a3.297 3.297 0 0 0-.298-1.891c.287.601-.069 1.428-1.055.832Z" fill="#BA422B"/><path fill-rule="evenodd" clip-rule="evenodd" d="M184.078 126.096c-4.874 0-8.842-4.261-8.842-9.499s3.964-9.499 8.842-9.499c4.877 0 8.841 4.261 8.841 9.499s-3.968 9.499-8.841 9.499Zm-.001-18.077c-4.365 0-7.918 3.844-7.918 8.578s3.556 8.578 7.918 8.578c4.363 0 7.919-3.844 7.919-8.578s-3.553-8.578-7.919-8.578Z" fill="#19313A"/><circle cx="160.396" cy="118.371" fill="#fff" r="6.842"/><path opacity=".2" fill-rule="evenodd" clip-rule="evenodd" d="M157.612 122.513a7.727 7.727 0 0 1-.857-9.488l-.242-.288a6.84 6.84 0 1 0 10.124 8.431c-1.936 2.569-6.945 3.233-9.025 1.345Z" fill="#BAC4CA"/><path fill-rule="evenodd" clip-rule="evenodd" d="M153.648 119.493s.221-4.848 4.118-6.445c4.388-1.798 8.169.557 8.946 2.709a2.454 2.454 0 0 0-.433-1.73c-1.126-1.73-3.899-3.862-8.287-2.397a6.36 6.36 0 0 0-4.344 7.863Z" fill="#19313A"/><path fill-rule="evenodd" clip-rule="evenodd" d="M167.237 118.37a6.8 6.8 0 0 0-.288-1.969 3.256 3.256 0 0 0-2.163-2.191 3.936 3.936 0 0 0-3.801.769 6.205 6.205 0 0 0-1.138 7.481 4.304 4.304 0 0 0 1.978 1.561 3.24 3.24 0 0 0 3.364-.775 6.805 6.805 0 0 0 2.048-4.876Z" fill="#19313A"/><path fill-rule="evenodd" clip-rule="evenodd" d="M161.014 123.592c.253.174.524.318.81.43a3.238 3.238 0 0 0 3.363-.775 6.858 6.858 0 0 0 1.442-2.073 7.243 7.243 0 0 1-5.615 2.418Z" fill="#002030"/><path fill-rule="evenodd" clip-rule="evenodd" d="M165.916 115.302a1.616 1.616 0 0 0-2.764.97c-.258 1.798.966 3.769 2.455 3.769.984 0 1.442-.936 1.307-2.338a3.664 3.664 0 0 0-.998-2.401Z" fill="#fff"/><path fill-rule="evenodd" clip-rule="evenodd" d="M176.032 117.72a1.158 1.158 0 0 0-.394-.736 2.002 2.002 0 0 0-1.356-.384 4.7 4.7 0 0 0-2.55.661 1.258 1.258 0 0 0-.601.902l-.168 1.164a5.715 5.715 0 0 1 3.359-1.057c1.592 0 1.93.878 1.93.878l-.22-1.428Z" fill="#19313A"/><path fill-rule="evenodd" clip-rule="evenodd" d="M174.282 116.597a4.7 4.7 0 0 0-2.55.661 1.26 1.26 0 0 0-.601.902l-.168 1.165a5.709 5.709 0 0 1 3.359-1.058c1.592 0 1.93.878 1.93.878-.567-1.752-3.177-1.122-3.281-1.555-.104-.434.32-.908 1.311-.993Z" fill="#002030"/><path fill-rule="evenodd" clip-rule="evenodd" d="m150.912 115.722-14.816-2.211.741 4.081 13.817.33s.217-1.306.258-2.2Z" fill="#19313A"/><path fill-rule="evenodd" clip-rule="evenodd" d="m150.728 117.44-11.292-1.527a5.074 5.074 0 0 0-.865-2.034l-2.473-.368.741 4.081 13.818.33s.03-.194.071-.482Z" fill="#002030"/><path fill-rule="evenodd" clip-rule="evenodd" d="M173.175 120.584c-.734.347-1.427 2.746-.8 4.806a3.69 3.69 0 0 0 3.541 2.691c1.686.057 2.603-.923 2.56-2.162-.037-1.083-1.337-1.103-2.56-2.595-1.132-1.373-1.371-3.388-2.741-2.74Z" fill="#EE9681"/><path fill-rule="evenodd" clip-rule="evenodd" d="M175.468 126.987c-2.177-.402-3.312-2.963-3.229-4.471a6.283 6.283 0 0 0 .136 2.872 3.69 3.69 0 0 0 3.541 2.691c1.686.056 2.603-.923 2.56-2.162-.286.849-1.207 1.402-3.008 1.07Z" fill="#EB7C74"/><path fill-rule="evenodd" clip-rule="evenodd" d="M177.539 125.874a.998.998 0 0 1-.133-.013 1.16 1.16 0 0 1-.385-.145 1.584 1.584 0 0 1-.683-.856c-.049-.136-.18-.568.116-.494.062.02.119.053.167.096.139.112.288.212.423.317.251.193.568.301.805.497.087.067.14.17.142.28a.338.338 0 0 1-.216.279.559.559 0 0 1-.236.039Z" fill="#F8C6A3"/><path fill-rule="evenodd" clip-rule="evenodd" d="M161.045 127.448c-5.993 0-10.851-4.858-10.851-10.851 0-5.993 4.858-10.851 10.851-10.851 5.993 0 10.851 4.858 10.851 10.851-.005 5.992-4.861 10.847-10.852 10.851h.001Zm0-20.782a9.93 9.93 0 1 0 9.931 9.931c-.007-5.483-4.449-9.925-9.932-9.931h.001Z" fill="#19313A"/><path fill-rule="evenodd" clip-rule="evenodd" d="M170.2 134.059a21.41 21.41 0 0 1-7.696-2.617c-2.281-1.205-4.027-1.38-4.43.385-.586 2.545 1.91 9.033 10.283 10.292 5.359.805 9.251-.758 11.418-2.516a7.08 7.08 0 0 0 2.365-3.33c.481-1.538-.123-3.377-3.899-2.647a26.38 26.38 0 0 1-8.041.433Z" fill="#C9434D"/><path fill-rule="evenodd" clip-rule="evenodd" d="M169.047 133.901a23.987 23.987 0 0 1-6.543-2.459c-2.281-1.205-4.027-1.38-4.43.385-.474 2.062 1.076 6.712 6.137 9.072a7.315 7.315 0 0 0 4.842-6.879c0-.043-.006-.08-.006-.119Z" fill="#7C1423"/><path fill-rule="evenodd" clip-rule="evenodd" d="M176.863 133.866a26.11 26.11 0 0 1-6.661.192 20.285 20.285 0 0 1-7.047-2.285 7.09 7.09 0 0 0 .679 2.678c.638.943 3.693 2.115 5.417 2.36 3.363.48 6.007-.378 6.299-.703.497-.711.936-1.461 1.313-2.242Z" fill="#fff"/><path opacity=".2" fill-rule="evenodd" clip-rule="evenodd" d="M168.028 134.367c2.814.667 5.744.677 8.562.03.16-.306.273-.531.273-.531a26.11 26.11 0 0 1-6.661.192 20.285 20.285 0 0 1-7.047-2.285 7.09 7.09 0 0 0 .679 2.678c.44.651 2.033 1.409 3.543 1.898a4.769 4.769 0 0 1-2.745-2.498c-.148-.699.699-.178 3.396.516Z" fill="#BAC4CA"/><path fill-rule="evenodd" clip-rule="evenodd" d="M173.686 142.145c-.724-1.565-5.014-5.574-13.647-4.48a12.747 12.747 0 0 0 8.325 4.449c1.762.278 3.557.289 5.322.031Z" fill="#EC6469"/><path fill-rule="evenodd" clip-rule="evenodd" d="M172.468 142.284c-.008 0-4.855-.299-7.178-1.845-2.306-1.538-1.762-2.923.252-2.774a20.632 20.632 0 0 0-5.506 0 12.747 12.747 0 0 0 8.326 4.449c1.358.21 2.735.267 4.106.17Z" fill="#DB545B"/><path opacity=".2" fill-rule="evenodd" clip-rule="evenodd" d="M169.742 139.327a9.32 9.32 0 0 0-4.133-1.18c-2.004.203 2.01 1.813 3.755 2.447 2.237.814 2.499-.167.378-1.267Z" fill="#fff"/><path opacity=".2" fill-rule="evenodd" clip-rule="evenodd" d="M172.354 141.057c-.339-.229-.792-.218-.792.058 0 .206.261.548.792.712.53.165.547-.403 0-.77Z" fill="#fff"/><path fill-rule="evenodd" clip-rule="evenodd" d="M187.179 121.674c1.492-1.634 1.383-7.18-.724-8.816a5.965 5.965 0 1 0 .724 8.816Z" fill="#fff"/><path opacity=".2" fill-rule="evenodd" clip-rule="evenodd" d="M187.179 121.674a4.407 4.407 0 0 0 .874-2.188c-1.249 2.423-4.228 3.802-6.834 2.069-3.226-2.148-2.811-7.123-1.509-9.034a5.96 5.96 0 1 0 7.469 9.157v-.004Z" fill="#BAC4CA"/><path fill-rule="evenodd" clip-rule="evenodd" d="M177.002 118.836s-.178-4.47 3.416-5.944a6.87 6.87 0 0 1 6.015.216c.465.271.836.676 1.063 1.163a2.89 2.89 0 0 0-1.126-2.123c-1.255-.939-3.098-1.476-5.744-.568-5.307 1.829-3.624 7.256-3.624 7.256Z" fill="#19313A"/><path fill-rule="evenodd" clip-rule="evenodd" d="M186.582 113.948a3.461 3.461 0 0 0-3.235.687 5.41 5.41 0 0 0-.991 6.525 3.523 3.523 0 0 0 3.598 1.512 3.354 3.354 0 0 0 2.114-2.483 7.354 7.354 0 0 0-.278-5.121 2.033 2.033 0 0 0-1.208-1.12Z" fill="#19313A"/><path fill-rule="evenodd" clip-rule="evenodd" d="M188.069 120.19a7.51 7.51 0 0 0 .267-1.336 5.134 5.134 0 0 1-4.683 3.469 3.402 3.402 0 0 0 2.299.35 3.356 3.356 0 0 0 2.117-2.483Z" fill="#002030"/><path fill-rule="evenodd" clip-rule="evenodd" d="M187.172 114.725a1.415 1.415 0 0 0-2.418.85c-.226 1.574.846 3.297 2.148 3.297.865 0 1.263-.818 1.143-2.046a3.21 3.21 0 0 0-.873-2.101Z" fill="#fff"/><path fill-rule="evenodd" clip-rule="evenodd" d="M136.094 113.512c-1.84-1.116-6.343-1.884-9.286 1.001-2.943 2.884-2.729 10.813 2.615 13.486a8.22 8.22 0 0 0 9.148-.832c.661-5.604.686-11.59-2.477-13.655Z" fill="#F8C6A3"/><path fill-rule="evenodd" clip-rule="evenodd" d="M130.231 122.861a2.631 2.631 0 1 1 5.262 0 2.631 2.631 0 0 1-5.262 0Z" fill="#DD8964"/><path fill-rule="evenodd" clip-rule="evenodd" d="M132.861 125.486c2.482-.02 4.387-2.736 3.984-5.998-.474-3.844-3.607-4.522-5.54-4.414a3.92 3.92 0 0 0-3.757 3.712 3.564 3.564 0 0 1 4.369-1.922c3.22.859 2.18 5.67 1.105 5.994-1.074.324-.161 2.628-.161 2.628Z" fill="#DD8964"/><path fill-rule="evenodd" clip-rule="evenodd" d="M132.675 113.151a6.235 6.235 0 0 0-5.232 1.51c-1.893 1.594-2.306 4.098-1.998 6.402.008.055.144.143.154.069.336-2.492.851-5.032 3.119-6.535a9.058 9.058 0 0 1 3.998-1.359c.058-.011-.015-.082-.041-.087Z" fill="#FDDEBC"/><path fill-rule="evenodd" clip-rule="evenodd" d="M139.492 128.011c-.352-.925-.744-2.521-.744-2.521a8.785 8.785 0 0 1-2.847 1.73 9.901 9.901 0 0 1-8.639-.874 7.473 7.473 0 0 0 2.162 1.652 8.29 8.29 0 0 0 7.66.137c3.547 9.012 9.045 12.775 17.218 16.173a31.093 31.093 0 0 0 6.619 1.834 28.074 28.074 0 0 1-21.429-18.131ZM166.861 143.22a16.496 16.496 0 0 1-4.357-1.796s.918 1.826 4.208 2.581c3.674.844 5.531-.334 5.531-.334a18.416 18.416 0 0 1-5.382-.451Z" fill="#F2A37C"/><path fill-rule="evenodd" clip-rule="evenodd" d="M97.589 204.114c-.054 3.605-1.294 13.295 6.144 20.845 7.437 7.55 21.751 4.62 24.622 3.94a24.68 24.68 0 0 1 6.59-.338c1.532-.031 5.521-1.014 6.198-4.056 0 0-4.283 2.253-7.438-2.705a18.104 18.104 0 0 1 .254-18.861c3.348-5.142 10.519-6.256 12.477-6.491 0 0-.486-2.333-3.686-2.738-1.746-.222-6.247 1.87-12.422 3.663-9.238 2.687-21.209 6.951-32.74 6.741Z" fill="#47B"/><path fill-rule="evenodd" clip-rule="evenodd" d="M135.475 196.028c-3.318 1.428-7.182 7.009-8.066 12.109a25.132 25.132 0 0 1 5.847-9.285c1.854-1.87 5.229-3.452 5.601-3.766.395-.33-1.162-.014-3.382.942Z" fill="#71ABDE"/><path fill-rule="evenodd" clip-rule="evenodd" d="M128.356 228.903a24.638 24.638 0 0 1 6.59-.338c1.532-.031 5.521-1.014 6.198-4.056a5.427 5.427 0 0 1-6.1-1.067l-1.617.747s-1.141 2.35-3.742-.561c-3.561-3.988-2.87-12.626-2.87-12.626-1.779 10.276 2.659 14.383 2.099 14.68-.561.297-10.398 2.824-17.213-1.412-6.814-4.236-5.242-16.894-1.528-18.548 3.768-1.675 8.073-3.039 14.576-6.674-8.222 2.48-17.834 5.235-27.16 5.066-.053 3.605-1.293 13.295 6.144 20.845 7.438 7.55 21.753 4.62 24.623 3.944Z" fill="#3E65AE"/><path fill-rule="evenodd" clip-rule="evenodd" d="M136.172 198.588a32.995 32.995 0 0 1 8.71-1.946c-1.125-1.332-4.643-.81-8.71 1.946Z" fill="#295296"/><path fill-rule="evenodd" clip-rule="evenodd" d="M146.437 196.452c2.793-.422 13.5-.857 19.125 2.36 5.894 3.374 6.639 7.785 6.18 12.605-.46 4.821-30.595 13.092-30.595 13.092s-.97 2.035-4.517 1.314c-3.547-.721-6.103-4.003-6.891-10.696-.788-6.694 2.363-13.781 6.432-16.537a13.735 13.735 0 0 1 8.71-1.946l1.556-.192Z" fill="#F8C6A3"/><path fill-rule="evenodd" clip-rule="evenodd" d="M150.181 210.117s-3.903.883-9.734 5.853c-4.777 4.072-7.358 4.826-9.064.237-1.707-4.589-.157-11.793 2.68-15.71a19.855 19.855 0 0 0-4.325 14.629c.788 6.693 3.348 9.974 6.891 10.696 3.543.722 4.517-1.314 4.517-1.314s3.703-10.828 9.035-14.391Z" fill="#F2A37C"/><path fill-rule="evenodd" clip-rule="evenodd" d="M141.143 224.509a23.51 23.51 0 0 1-4.517 1.314c3.547.721 4.517-1.314 4.517-1.314Z" fill="#295296"/><path fill-rule="evenodd" clip-rule="evenodd" d="M171.738 211.414c-.441 6.177-6.956 29.183-8.381 35.119-1.241 5.176-2.018 8.308-2.018 8.308-7.93 6.277-15.801 9.563-23.61 9.691 0 0 .385-12.844.385-20.072 0-7.226.254-13.501 2.726-20.727.751-2.195 4.359-10.521 9.344-13.619 6.641-4.126 13.192-.213 21.554 1.3Z" fill="#F8C6A3"/><path fill-rule="evenodd" clip-rule="evenodd" d="M150.458 244.899c-5.755.773-7.247 0-8.468-6.181-1.222-6.18.27-18.313 2.075-21.688a39.867 39.867 0 0 0-3.228 6.707c-2.472 7.226-2.726 13.501-2.726 20.727 0 3.9-.111 9.433-.213 13.704l5.382-.748 17.785-4.499s.421-.362.975-.913c.337-1.385.786-3.236 1.321-5.471l.123-.51c-2.655-1.407-7.793-1.832-13.026-1.128ZM166.261 214.193a9.176 9.176 0 0 1-4.051-2.53c-1.153-1.332-1.647-3.09-2.287-2.736-1.277.708-.639 5.824 1.99 7.546a5.51 5.51 0 0 0 5.681.598c.923-.467 2.058-1.956-1.333-2.878Z" fill="#F2A37C"/><path opacity=".3" fill-rule="evenodd" clip-rule="evenodd" d="M171.738 211.417c.459-4.823-.289-9.232-6.18-12.605-3.15-1.803-7.897-2.458-11.952-2.612 4.466.384 14.134 3.25 16.209 9.577.528 1.604.481 4.266.067 8.319-.971 9.543-4.005 22.777-4.008 22.788 2.414-9.127 5.562-21.239 5.864-25.467Z" fill="#fff"/><path fill-rule="evenodd" clip-rule="evenodd" d="M161.345 254.843a20.607 20.607 0 0 1 1.872-4.924c.499-.664.499-1.826-2.574-2.491-3.074-.665-11.3-.25-17.362 1.744-6.061 1.995-7.225 4.154-6.892 5.067.332.913 1.781 6.388 1.345 10.296 7.788-.099 15.66-3.436 23.611-9.692Z" fill="#EFF8FC"/><path fill-rule="evenodd" clip-rule="evenodd" d="M162.673 250.95v-.006s-6.09-1.38-14.66.803c-8.805 2.242-11.006 4.836-11.006 4.836.192.874.394 1.909.546 3.006 1.079-.856 3.974-2.691 10.46-4.346a36.542 36.542 0 0 1 13.486-.994 27.522 27.522 0 0 1 1.174-3.299Z" fill="#47B"/><path fill-rule="evenodd" clip-rule="evenodd" d="M148.318 262.451a2.453 2.453 0 0 0-1.881.034c-3.742 1.241-4.577-1.578-4.594-3.485a19.27 19.27 0 0 0-.833-5.93 2.702 2.702 0 0 1 1.479-3.627c-5.377 1.915-6.423 3.923-6.105 4.796.332.914 1.781 6.388 1.345 10.296a31.104 31.104 0 0 0 10.589-2.084Z" fill="#242357" style="mix-blend-mode:multiply" opacity=".2"/><path fill-rule="evenodd" clip-rule="evenodd" d="M144.77 261.447c-1.73 1.224-5.708 1.345-7.119-1.079 0 0-.633.378-1.318 2.358s-1.506 6.643 0 9.157a38.25 38.25 0 0 1 9.123-3.275c5.027-1.066 11.959-4.799 14.32-6.398 2.36-1.599 12.263-7.314 19.651-3.733 0 0-2.513-3.96-9.291-3.884-6.778.076-8.795.252-8.795.252s-8.962.35-13.143 2.262c-2.666 1.217-1.6 3.044-3.428 4.34Z" fill="#47B"/><path fill-rule="evenodd" clip-rule="evenodd" d="M159.775 262.208a33.346 33.346 0 0 1 5.629-2.96c-.453-2.054-1.147-4.085-2.151-4.504-.343.012-.636.026-.878.037h-.01c-2.844 1.395-3.028 5.505-3.028 5.505-1.595.252-6.727 3.422-8.604 4.245-3.678 1.61-5.743 1.388-6.61.761-1.219-.88-1.141-3.133-1.141-3.133-1.895.384-4.3-.02-5.333-1.794 0 0-.634.378-1.319 2.358-.685 1.98-1.506 6.643 0 9.157a38.25 38.25 0 0 1 9.123-3.275c5.029-1.065 11.96-4.798 14.322-6.397Z" fill="#242357" style="mix-blend-mode:multiply" opacity=".2"/><path fill-rule="evenodd" clip-rule="evenodd" d="M179.418 258.467c-6.994-3.378-16.235 1.555-19.198 3.451.138-.096-1.05-4.123 2.144-7.133 3.193-3.01 15.228-2.779 17.054 3.682Z" fill="#EFF8FC"/><path fill-rule="evenodd" clip-rule="evenodd" d="M179.418 258.464c-2.979-5.448-11.449-3.364-13.683-2.486-2.235.877-5.154 1.537-4.774.635a9.302 9.302 0 0 0-.741 5.302c2.965-1.893 12.206-6.826 19.198-3.451Z" fill="#A9CBD3"/><path fill-rule="evenodd" clip-rule="evenodd" d="M179.42 258.468a7.14 7.14 0 0 0-4.683-2.37 19.137 19.137 0 0 0-12.702 3.245 73.498 73.498 0 0 1-11.806 6.267c-3.86 1.678-11.916 2.294-14.361 5.355 0 0-.654 1.079-.467 3.966a5.558 5.558 0 0 0 3.883 5.408c2.666 1.066 10.436 1.598 20.109-1.599 9.673-3.198 16.049-3.663 20.032-9.369 3.463-4.964 1.28-9.412-.005-10.903Z" fill="#DEF1F8"/><mask id="e" style="mask-type:alpha" maskUnits="userSpaceOnUse" x="135" y="256" width="47" height="26"><path fill-rule="evenodd" clip-rule="evenodd" d="M179.42 258.468a7.14 7.14 0 0 0-4.683-2.37 19.137 19.137 0 0 0-12.702 3.245 73.498 73.498 0 0 1-11.806 6.267c-3.86 1.678-11.916 2.294-14.361 5.355 0 0-.654 1.079-.467 3.966a5.558 5.558 0 0 0 3.883 5.408c2.666 1.066 10.436 1.598 20.109-1.599 9.673-3.198 16.049-3.663 20.032-9.369 3.463-4.964 1.28-9.412-.005-10.903Z" fill="#fff"/></mask><g mask="url(#e)"><path d="M182.215 261.919c-1.654-3.251-6.92-5.938-14.242-3.599-7.474 2.386-8.78 5.586-16.74 8.596-7.96 3.01-14.856 2.055-16.941 8.842" stroke="#47B"/></g><path fill-rule="evenodd" clip-rule="evenodd" d="M174.514 259.006a23.373 23.373 0 0 0-14.398 4.7 37.232 37.232 0 0 1-12.013 5.766c-3.757 1.079-5.794.951-9.487 2.637a4.43 4.43 0 0 0-2.865 4.759 5.46 5.46 0 0 0 3.533 3.473c2.666 1.066 10.436 1.598 20.109-1.599 9.673-3.198 16.049-3.663 20.032-9.37a9.175 9.175 0 0 0 1.686-7.228c-.784-1.578-1.852-3.027-6.597-3.138Z" fill="#E8914F"/><path fill-rule="evenodd" clip-rule="evenodd" d="M145.385 279.782a15.832 15.832 0 0 1-5.586-.728 4.132 4.132 0 0 1-2.702-2.52 3.11 3.11 0 0 1 2.093-3.171 22.83 22.83 0 0 1 5.574-1.689c1.071-.217 2.284-.464 3.716-.875a38.365 38.365 0 0 0 12.449-5.977 22.038 22.038 0 0 1 13.07-4.439c.157 0 .316 0 .474.006 4.036.096 4.791 1.182 5.313 2.2a7.87 7.87 0 0 1-1.499 5.993c-2.778 3.983-6.877 5.163-13.082 6.951-1.868.537-3.986 1.147-6.246 1.897a43.637 43.637 0 0 1-13.576 2.355l.002-.003Z" fill="#D1783B"/><mask id="f" style="mask-type:alpha" maskUnits="userSpaceOnUse" x="137" y="260" width="43" height="20"><path fill-rule="evenodd" clip-rule="evenodd" d="M145.385 279.782a15.829 15.829 0 0 1-5.586-.728 4.132 4.132 0 0 1-2.702-2.52 3.11 3.11 0 0 1 2.093-3.171 22.83 22.83 0 0 1 5.574-1.689c1.071-.217 2.283-.464 3.716-.875a38.365 38.365 0 0 0 12.449-5.977 22.038 22.038 0 0 1 13.07-4.439c.157 0 .316 0 .474.006 4.036.096 4.791 1.182 5.313 2.2a7.87 7.87 0 0 1-1.499 5.993c-2.778 3.983-6.877 5.163-13.082 6.951-1.868.537-3.986 1.147-6.247 1.897a43.626 43.626 0 0 1-13.575 2.355l.002-.003Z" fill="#fff"/></mask><g mask="url(#f)" fill-rule="evenodd" clip-rule="evenodd" fill="#C66D32"><path d="m176.67 272.101 1.516-11.501.913.12-1.517 11.501-.912-.12ZM172.76 274.367l1.919-14.556.913.12-1.919 14.556-.913-.12ZM168.993 275.677l1.955-15.051.913.118-1.955 15.052-.913-.119ZM165.206 276.813l2.139-15.71.911.124-2.138 15.71-.912-.124ZM161.456 278.015l1.903-14.87.914.117-1.904 14.87-.913-.117ZM157.759 278.549l1.725-13.072.913.121-1.725 13.071-.913-.12ZM154.027 279.59l1.516-11.5.913.12-1.517 11.501-.912-.121ZM150.231 280.676l1.516-11.501.913.12-1.517 11.502-.912-.121ZM146.637 280.788l1.346-10.209.913.121-1.346 10.208-.913-.12ZM143.03 280.607l1.198-9.088.913.12-1.198 9.088-.913-.12ZM139.51 279.707l.964-7.303.912.121-.963 7.303-.913-.121Z"/><path d="m137.376 274.661.359-.847 14.643 6.205-.358.847-14.644-6.205ZM142.671 272.394l.355-.849 16.236 6.79-.355.849-16.236-6.79ZM149.957 270.538l.367-.843 15.524 6.758-.367.843-15.524-6.758ZM155.241 268.261l.36-.847 16.414 6.977-.359.846-16.415-6.976ZM160.046 265.41l.368-.842 16.384 7.173-.369.842-16.383-7.173ZM164.402 262.909l.358-.848 15.475 6.534-.358.849-15.475-6.535ZM170.549 260.801l.358-.848 10.518 4.442-.358.848-10.518-4.442Z"/></g><path fill-rule="evenodd" clip-rule="evenodd" d="M179.794 262.585a6.244 6.244 0 0 0-.137-.252 8.19 8.19 0 0 1-1.601 4.736c-2.778 3.983-6.877 5.165-13.082 6.951-1.868.538-3.986 1.148-6.247 1.897a43.603 43.603 0 0 1-13.575 2.356 15.803 15.803 0 0 1-5.586-.728 4.424 4.424 0 0 1-2.425-1.91c-.065.295-.078.6-.037.9a4.132 4.132 0 0 0 2.702 2.52c1.804.575 3.695.821 5.586.727a43.637 43.637 0 0 0 13.576-2.355c2.265-.75 4.382-1.359 6.246-1.897 6.205-1.788 10.304-2.969 13.082-6.951a7.876 7.876 0 0 0 1.498-5.994Z" fill="#C66D32"/><path d="m178.224 260.379-1.922 11.502M174.315 259.591l-1.922 14.557M170.583 260.406l-1.969 15.049M166.969 260.884l-2.133 15.711M163.008 262.925l-1.922 14.869M159.314 265.258l-1.922 13.072M155.581 267.87l-1.922 11.501M151.785 268.954l-1.923 11.502M148.19 270.359l-1.922 10.21M144.584 271.299l-1.923 9.089M141.063 272.184l-1.922 7.303M136.726 273.958l14.644 6.205M142.019 271.691l16.23 6.784M149.311 269.837l15.525 6.758M154.593 267.557l16.418 6.983M159.403 264.709l16.384 7.172M163.752 262.205l15.476 6.534M169.899 260.097l10.523 4.437" stroke="#E8914F"/><circle cx="295.186" cy="93.952" r="24.189" fill="#7A60A6"/><path fill-rule="evenodd" clip-rule="evenodd" d="M318.723 88.4a24.068 24.068 0 0 0-9.439-14.077c.169.567 3.436 12.035-5.863 23.62-9.322 11.617-26.308 11.157-27.065 11.13 7.069 8.807 19.294 11.545 29.443 6.592 10.149-4.953 15.514-16.275 12.92-27.266h.004Z" fill="#6D5298"/><path fill-rule="evenodd" clip-rule="evenodd" d="M316.918 88.42a22.464 22.464 0 0 1-36.698 22.021 23.828 23.828 0 0 0 32.758-30.407 22.372 22.372 0 0 1 3.94 8.385Z" fill="#5F4589"/><path opacity=".25" fill-rule="evenodd" clip-rule="evenodd" d="M274.299 91.647a7.592 7.592 0 0 1 5.651-9.13 7.591 7.591 0 0 1 9.129 5.65 7.592 7.592 0 1 1-14.78 3.48Z" fill="#F298BB"/><path opacity=".25" fill-rule="evenodd" clip-rule="evenodd" d="M276.013 89.056a4.378 4.378 0 1 1 8.58-.3 4.377 4.377 0 0 1-8.58.3ZM293.034 82.284a7.593 7.593 0 1 1 14.783-3.477 7.593 7.593 0 0 1-14.783 3.477Z" fill="#F298BB"/><path opacity=".25" fill-rule="evenodd" clip-rule="evenodd" d="M295.261 79.264a4.087 4.087 0 1 1 7.957-1.874 4.087 4.087 0 0 1-7.957 1.874ZM283.693 77.788a3.748 3.748 0 1 1 7.294-1.724 3.748 3.748 0 0 1-7.294 1.724Z" fill="#F298BB"/><path opacity=".25" fill-rule="evenodd" clip-rule="evenodd" d="M284.514 76.86a2.017 2.017 0 0 1 3.026-2.182 2.017 2.017 0 1 1-3.026 2.181Z" fill="#F298BB"/><path opacity=".15" fill-rule="evenodd" clip-rule="evenodd" d="M303.187 74.329c-2.919-1.55-13.922-3.669-22.133 4.805a22.392 22.392 0 0 0-3.576 26.027c-.696-2.956-.932-13.263 5.528-21.086 6.46-7.824 15.836-9.322 20.181-9.746Z" fill="#D6B6D8"/><path fill-rule="evenodd" clip-rule="evenodd" d="M303.186 74.329s-13.363-4.059-22.015 6.016c-8.651 10.074-4.672 23.146-3.693 24.811 0 0-8.147-13.797 2.514-25.843 9.953-11.246 23.194-4.984 23.194-4.984Z" fill="#D7CEE7"/><path fill-rule="evenodd" clip-rule="evenodd" d="M336.916 117.777c-1.316 2.775-12.093.606-26.696-4.893-6.032-2.273-12.721-5.117-19.664-8.411-7.192-3.414-13.839-6.925-19.549-10.27-13.141-7.694-21.37-14.505-20.071-17.241 1.234-2.595 10.746-.86 23.93 3.879-.453.704-.87 1.43-1.25 2.175-5.348-1.542-8.892-1.899-9.457-.707-.594 1.25 2.21 3.967 7.225 7.358a166.04 166.04 0 0 0 20.745 11.491 169.523 169.523 0 0 0 21.344 8.597c6.171 1.918 10.329 2.457 10.945 1.159.586-1.237-2.158-3.917-7.088-7.264a24.7 24.7 0 0 0 .878-2.307c12.347 7.363 19.961 13.796 18.708 16.434Z" fill="#D5E9F9"/><path fill-rule="evenodd" clip-rule="evenodd" d="M336.364 118.552c-1.318 2.774-12.095.605-26.697-4.894-6.032-2.273-12.72-5.116-19.665-8.411-7.191-3.413-13.839-6.924-19.548-10.27-13.142-7.694-21.371-14.505-20.072-17.24 1.234-2.595 10.803-.827 23.984 3.91a20.51 20.51 0 0 0-1.147 2.188c-5.348-1.543-9.048-1.944-9.611-.752-.593 1.25 2.211 3.967 7.226 7.357a166.067 166.067 0 0 0 20.746 11.492 169.6 169.6 0 0 0 21.343 8.597c6.171 1.917 10.329 2.456 10.946 1.159.587-1.238-2.011-3.83-6.942-7.177.33-.753.714-1.468.968-2.251 12.344 7.362 19.721 13.655 18.469 16.292Z" fill="#F49639"/><path fill-rule="evenodd" clip-rule="evenodd" d="M336.916 117.777c-1.316 2.775-12.093.606-26.696-4.893-6.032-2.273-12.721-5.117-19.664-8.411-7.192-3.414-13.839-6.925-19.549-10.27-13.141-7.694-21.37-14.505-20.071-17.241 1.234-2.595 10.746-.86 23.93 3.879-.453.704-.87 1.43-1.25 2.175-5.348-1.542-8.892-1.899-9.457-.707-.594 1.25 2.21 3.967 7.225 7.358a166.04 166.04 0 0 0 20.745 11.491 169.523 169.523 0 0 0 21.344 8.597c6.171 1.918 10.329 2.457 10.945 1.159.586-1.237-2.158-3.917-7.088-7.264a24.7 24.7 0 0 0 .878-2.307c12.347 7.363 19.961 13.796 18.708 16.434Z" fill="#FFE568"/><path fill-rule="evenodd" clip-rule="evenodd" d="M331.228 110.864c2.456 2.386 6.446 5.19 4.458 6.863-1.987 1.673-17.587-1.345-47.261-15.148 0 0 30.13 11.661 37.919 13.031 7.728 1.359 8.813.314 4.884-4.746Z" fill="#FCC231"/><path fill-rule="evenodd" clip-rule="evenodd" d="M265.155 78.307c-3.284-.664-11.379-2.648-12.931-1.14-1.552 1.51 7.705 9.4 11.047 11.283 0 0-8.305-6.704-8.665-9.796-.269-2.308 10.549-.347 10.549-.347Z" fill="#FFEDB2"/><path fill-rule="evenodd" clip-rule="evenodd" d="M273.547 82.097a50.82 50.82 0 0 0-6.348-1.532c-3.06-.486-6.713-.972-6.337 1.109.375 2.08 3.162 4.633 8.808 8.553 5.645 3.92 15.176 9.278 15.176 9.278s-13.951-7.006-19.294-10.754c-5.344-3.748-8.569-7.537-7.823-9.167.93-2.035 9.398-.673 16.209 2.018l-.391.495Z" fill="#FFDA60"/><path fill-rule="evenodd" clip-rule="evenodd" d="M65.645 122.796s-24.837 3.641-44.939-3.48a1.13 1.13 0 0 1-.702-1.381c.332-1.141.892-3.15 1.441-5.531 1.285-5.556 44.2 10.392 44.2 10.392Z" fill="#A9CBD3"/><path fill-rule="evenodd" clip-rule="evenodd" d="M21.446 112.404c-.34 1.472-.684 2.801-.975 3.873 20.071 7.96 45.169 6.519 45.169 6.519s-42.91-15.948-44.194-10.392Z" fill="#8CB8BF"/><path fill-rule="evenodd" clip-rule="evenodd" d="M25.536 89.005s.192 10.811-2.764 16.372c-2.956 5.56 32.745 17.983 42.874 17.42 0 0-13.902-11.713-21.528-21.083a42.776 42.776 0 0 0-18.582-12.71Z" fill="#CCE4EA"/><path opacity=".5" fill-rule="evenodd" clip-rule="evenodd" d="M22.772 105.377c-2.954 5.56 32.745 17.983 42.874 17.42-16.18-5.19-38.34-23.592-38.34-23.592a38.037 38.037 0 0 0-1.77-10.2s.19 10.811-2.764 16.372Z" fill="#A9CBD3"/><path fill-rule="evenodd" clip-rule="evenodd" d="M14.646 91.985c-1.034.186-5.845.986-10.929 1.43-7.64.667-14.232-.64-13.375 1.409.764 1.826 12.698 13.54 29.825 19.97 17.128 6.43 38.527 8.553 45.478 8.001a168.251 168.251 0 0 1-28.35-13.601c-14.175-8.636-19.682-17.746-22.649-17.21Z" fill="#F7FCFE"/><path fill-rule="evenodd" clip-rule="evenodd" d="M65.645 122.796s-9.345-9.645-14.785-20.14c-7.123-13.748-8.814-24.297-9.568-25.304-.755-1.007-3.927 1.403-8.994 5.286a55.231 55.231 0 0 0-6.763 6.365s24.07 28.249 40.11 33.793Z" fill="#F7FCFE"/><path fill-rule="evenodd" clip-rule="evenodd" d="M10.832 94.141c-8.244 2.062-18.22.371-15.919 3.199 2.302 2.827 25.035 20.392 57.556 23.293 0 0-28.418-7.068-40.998-14.725-14.78-8.995-9.303-8.886-6.965-9.418a20.241 20.241 0 0 0 6.326-2.349ZM60.967 119.708s-22.122-17.093-33.011-30.295c0 0 4.516-6.08 10.148-9.087 0 0-4.654 4.25-6.072 7.015-.656 1.282.642 3.977 2.834 6.8 5.195 6.694 26.101 25.567 26.101 25.567Z" fill="#fff"/><path fill-rule="evenodd" clip-rule="evenodd" d="M268.152 162.872s-18.505 7.943-35.559 6.566a.908.908 0 0 1-.829-.927 83.97 83.97 0 0 0-.022-4.584c-.147-4.573 36.41-1.055 36.41-1.055Z" fill="#A9CBD3"/><path fill-rule="evenodd" clip-rule="evenodd" d="M231.746 163.926c.039 1.212.047 2.314.042 3.203 17.203 2.034 36.364-4.257 36.364-4.257s-36.557-3.518-36.406 1.054Z" fill="#8CB8BF"/><path fill-rule="evenodd" clip-rule="evenodd" d="M230.093 144.943s2.377 8.342 1.232 13.262c-1.145 4.921 29.092 7.19 36.828 4.666 0 0-13.191-6.215-21.032-11.907a34.307 34.307 0 0 0-17.028-6.021Z" fill="#CCE4EA"/><path opacity=".5" fill-rule="evenodd" clip-rule="evenodd" d="M231.325 158.205c-1.144 4.92 29.092 7.19 36.828 4.666-13.611-.685-34.585-10.386-34.585-10.386a30.486 30.486 0 0 0-3.475-7.542s2.377 8.341 1.232 13.262Z" fill="#A9CBD3"/><path fill-rule="evenodd" clip-rule="evenodd" d="M222.268 149.498c-.763.359-4.325 1.969-8.177 3.364-5.785 2.092-11.165 2.438-10.079 3.85.969 1.259 12.636 7.88 27.239 9.333 14.603 1.454 31.632-1.309 36.904-3.171a135.075 135.075 0 0 1-24.782-4.7c-12.772-3.78-18.918-9.704-21.105-8.676Z" fill="#F7FCFE"/><path fill-rule="evenodd" clip-rule="evenodd" d="M268.153 162.872s-9.233-5.551-15.614-12.568c-8.356-9.19-11.84-17.019-12.634-17.645-.794-.626-2.754 1.898-5.88 5.958a44.164 44.164 0 0 0-3.932 6.33s24.483 16.932 38.06 17.925Z" fill="#F7FCFE"/><path fill-rule="evenodd" clip-rule="evenodd" d="M219.753 151.957c-5.965 3.296-14.049 4.043-11.681 5.76 2.367 1.717 23.611 10.647 49.42 6.194 0 0-23.487.38-34.818-2.964-13.314-3.927-9.043-4.97-7.341-5.869a16.233 16.233 0 0 0 4.42-3.121ZM263.889 161.441s-20.673-8.69-31.836-16.681c0 0 2.251-5.645 5.995-9.137 0 0-2.733 4.253-3.261 6.689-.245 1.13 1.317 2.952 3.598 4.688 5.407 4.119 25.504 14.441 25.504 14.441ZM2.46 162.139h-9.64a13.005 13.005 0 0 0-12.907-11.449v-6.064c-.002-7.399-5.999-13.393-13.394-13.391h.003c-7.395 0-13.39 5.995-13.39 13.391v3.961a9.167 9.167 0 0 0-17.395 4.054v9.499H-75.54a4.012 4.012 0 0 0-.001 8.023h78a4.012 4.012 0 0 0 .002-8.024Z" fill="#fff"/><circle cx="183.652" cy="55.275" r="7.042" fill="#fff" fill-opacity=".2"/><path fill-rule="evenodd" clip-rule="evenodd" d="M183.652 63.528c-.657 0-1.19-.533-1.191-1.19V48.21a1.19 1.19 0 0 1 2.381 0v14.127a1.192 1.192 0 0 1-1.191 1.19h.001Z" fill="#fff" fill-opacity=".298"/><path fill-rule="evenodd" clip-rule="evenodd" d="M191.903 55.274a1.19 1.19 0 0 1-1.19 1.19h-14.127a1.191 1.191 0 0 1 .001-2.38h14.126a1.192 1.192 0 0 1 1.19 1.19Z" fill="#fff" fill-opacity=".298"/><path fill-rule="evenodd" clip-rule="evenodd" d="M188.646 55.274a1.19 1.19 0 0 1-1.19 1.19h-7.609a1.19 1.19 0 1 1 0-2.379h7.609a1.19 1.19 0 0 1 1.19 1.19Z" fill="#fff"/><path fill-rule="evenodd" clip-rule="evenodd" d="M183.652 60.27a1.19 1.19 0 0 1-1.191-1.191v-7.612a1.19 1.19 0 0 1 2.381 0v7.608a1.193 1.193 0 0 1-1.19 1.195Z" fill="#fff"/><path fill-rule="evenodd" clip-rule="evenodd" d="M226.295 102.979a1.898 1.898 0 1 1 3.797 0 1.898 1.898 0 0 1-3.797 0ZM99.586 47.024a1.899 1.899 0 1 1 3.797 0 1.899 1.899 0 0 1-3.797 0ZM91.651 95.751a1.9 1.9 0 1 1 3.8-.001 1.9 1.9 0 0 1-3.8.001ZM205.75 43.03a1.898 1.898 0 1 1 3.653.726 1.898 1.898 0 0 1-3.653-.727Z" fill="#FFEDB2"/></g><defs><linearGradient id="b" x1="90.576" y1="222.851" x2="90.576" y2="297.096" gradientUnits="userSpaceOnUse"><stop stop-color="#F59D10" stop-opacity=".502"/><stop offset=".144" stop-color="#F59D10" stop-opacity=".471"/><stop offset=".361" stop-color="#F59D12" stop-opacity=".384"/><stop offset=".624" stop-color="#F69E16" stop-opacity=".247"/><stop offset=".921" stop-color="#F69F1B" stop-opacity=".055"/><stop offset="1" stop-color="#F7A01D" stop-opacity=".01"/></linearGradient><linearGradient id="c" x1="169.466" y1="125.153" x2="169.466" y2="106.175" gradientUnits="userSpaceOnUse"><stop stop-color="#F2A37C"/><stop offset=".09" stop-color="#F2A47D" stop-opacity=".969"/><stop offset=".225" stop-color="#F2A780" stop-opacity=".882"/><stop offset=".39" stop-color="#F3AC86" stop-opacity=".741"/><stop offset=".577" stop-color="#F4B28D" stop-opacity=".549"/><stop offset=".783" stop-color="#F6BB97" stop-opacity=".298"/><stop offset="1" stop-color="#F8C6A3" stop-opacity=".01"/></linearGradient><linearGradient id="d" x1="188.128" y1="123.554" x2="188.128" y2="106.143" gradientUnits="userSpaceOnUse"><stop stop-color="#F2A37C"/><stop offset=".09" stop-color="#F2A47D" stop-opacity=".969"/><stop offset=".225" stop-color="#F2A780" stop-opacity=".882"/><stop offset=".39" stop-color="#F3AC86" stop-opacity=".741"/><stop offset=".577" stop-color="#F4B28D" stop-opacity=".549"/><stop offset=".783" stop-color="#F6BB97" stop-opacity=".298"/><stop offset="1" stop-color="#F8C6A3" stop-opacity=".01"/></linearGradient></defs></svg>